HIERARCHY
ROOT Hips
{
   OFFSET 0.00000 0.00000 0.00000
   CHANNELS 6 Xposition Yposition Zposition Zrotation Xrotation Yrotation
   JOINT Spine
   {
      OFFSET 0.000000 13.079551 0.000000
      CHANNELS 3 Zrotation Xrotation Yrotation
      JOINT Spine1
      {
         OFFSET -0.000000 28.223142 0.140426
         CHANNELS 3 Zrotation Xrotation Yrotation
         JOINT HEad
         {
            OFFSET 0.000000 9.607577 0.012474
            CHANNELS 3 Zrotation Xrotation Yrotation
            End Site
            {
               OFFSET -0.319000 14.051621 2.765345
            }
         }
         JOINT LeftShoulder1
         {
            OFFSET 9.889000 -0.398475 -0.242000
            CHANNELS 3 Zrotation Xrotation Yrotation
            JOINT LeftArm
            {
               OFFSET 11.310971 -0.003718 0.354332
               CHANNELS 3 Zrotation Xrotation Yrotation
               JOINT LeftForeArm
               {
                  OFFSET 36.043591 0.109054 -1.566774
                  CHANNELS 3 Zrotation Xrotation Yrotation
                  JOINT LeftHand
                  {
                     OFFSET 30.320732 0.093896 1.124376
                     CHANNELS 3 Zrotation Xrotation Yrotation
                     End Site
                     {
                        OFFSET 18.418731 -0.660000 1.653201
                     }
                  }
               }
            }
         }
         JOINT RightShoulder
         {
            OFFSET -9.889000 -0.398475 -0.242000
            CHANNELS 3 Zrotation Xrotation Yrotation
            JOINT RightArm
            {
               OFFSET -11.310971 -0.003718 0.354332
               CHANNELS 3 Zrotation Xrotation Yrotation
               JOINT RightForeArm
               {
                  OFFSET -36.186809 0.109054 -1.566774
                  CHANNELS 3 Zrotation Xrotation Yrotation
                  JOINT RightHand
                  {
                     OFFSET -30.241313 0.093896 1.124376
                     CHANNELS 3 Zrotation Xrotation Yrotation
                     End Site
                     {
                        OFFSET -18.294322 -0.660000 1.653201
                     }
                  }
               }
            }
         }
      }
   }
   JOINT LeftUpLeg
   {
      OFFSET 9.840380 -9.533777 0.111815
      CHANNELS 3 Zrotation Xrotation Yrotation
      JOINT LeftLeg
      {
         OFFSET 0.000000 -48.864969 1.509970
         CHANNELS 3 Zrotation Xrotation Yrotation
         JOINT LeftFoot
         {
            OFFSET -0.278905 -46.301641 -1.606649
            CHANNELS 3 Zrotation Xrotation Yrotation
            JOINT LeftToes
            {
               OFFSET -0.044000 -4.856599 9.349010
               CHANNELS 3 Zrotation Xrotation Yrotation
               End Site
               {
                  OFFSET 0.088000 -0.052195 10.757769
               }
            }
         }
      }
   }
   JOINT RightUpLeg
   {
      OFFSET -9.840380 -9.533777 0.111815
      CHANNELS 3 Zrotation Xrotation Yrotation
      JOINT RightLeg
      {
         OFFSET 0.000000 -48.864969 1.509970
         CHANNELS 3 Zrotation Xrotation Yrotation
         JOINT RightFoot
         {
            OFFSET 0.278905 -46.301641 -1.606649
            CHANNELS 3 Zrotation Xrotation Yrotation
            JOINT RightToes
            {
               OFFSET 0.044000 -4.856599 9.349010
               CHANNELS 3 Zrotation Xrotation Yrotation
               End Site
               {
                  OFFSET -0.088000 -0.151195 10.757769
               }
            }
         }
      }
   }
}
MOTION
Frames: 12
Frame Time: 0.016670
12.578957 60.626644 -124.558323 6.926867 -13.845303 18.512343 -17.448750 44.020016 7.053634 1.665982 6.853160 3.425306 -2.093541 13.067894 -8.643223 15.320751 17.513097 -38.728088 -14.576546 -54.510975 -57.304543 -4.218360 -5.504028 -107.328630 47.643653 4.544325 -8.395929 2.517283 36.277877 39.108799 20.665565 -44.400796 47.520082 6.582845 6.287209 135.458429 -44.727873 10.057249 -20.087352 20.543262 -60.497724 12.357727 137.698226 82.273317 -131.838538 82.324509 -12.749265 14.332114 -89.717526 27.893017 1.305017 -22.917515 -33.319855 -12.177569 -124.738433 58.140121 90.925985 -12.239827 -20.165544 9.410651 -33.038062 -36.709067 -12.673767
11.031616 58.975510 -125.119684 7.361391 -14.551373 19.938104 -14.240226 45.414703 4.882215 1.810337 6.604920 3.132428 -3.444343 11.880410 -8.528509 14.099529 18.577148 -37.007775 -17.723023 -56.875508 -57.647930 -7.075515 -4.007330 -109.214370 47.158611 4.943253 -9.128642 0.674668 37.225081 39.758296 21.377613 -45.898502 47.604919 7.556490 7.855666 134.902178 -44.986631 10.019002 -20.365835 20.393849 -62.164653 11.024555 141.375231 81.704062 -136.874641 83.513891 -12.942654 13.624465 -90.070067 28.752187 3.631057 -22.754348 -33.507528 -6.472286 -127.227641 60.992257 98.572033 -12.903392 -20.413818 9.027310 -24.565446 -27.634291 -10.803373
9.426038 57.353591 -125.590513 7.634922 -14.941408 20.899880 -11.367469 45.932664 2.828086 1.362274 6.315094 2.749102 -4.812989 11.286436 -8.281239 12.048702 19.616425 -36.254586 -20.045383 -56.552689 -58.538423 -8.547580 -3.170323 -110.668367 46.292048 5.761429 -9.826259 -1.182403 38.433044 40.945977 21.853323 -47.022676 47.789164 8.153535 9.278803 134.294852 -44.897460 9.957394 -20.464162 20.731028 -63.872220 10.347368 142.611987 81.006180 -139.421960 84.181952 -13.250208 13.147125 -90.165846 29.705261 5.583010 -22.217116 -33.979733 0.335459 -130.654566 64.348906 108.886124 -10.134709 -19.890699 8.983238 -30.869959 -24.570448 -16.983757
7.423471 55.481676 -125.777453 7.746981 -14.943551 21.916532 -8.673290 45.887861 1.067967 1.261453 5.976629 2.472920 -6.134047 10.208509 -6.630842 10.423705 20.891259 -34.726335 -23.684180 -58.727981 -59.067811 -11.207774 -0.272340 -113.146940 46.210929 25.149568 -8.190975 -3.415002 39.441552 42.088800 21.991905 -48.276228 47.752393 8.360514 10.320265 133.725091 -44.506001 10.021119 -20.565846 23.198637 -65.324476 11.210422 142.072156 80.876960 -141.105752 84.149700 -13.778213 12.879676 -89.850736 30.670749 7.172029 -22.030522 -35.022287 8.328650 -144.073920 67.926737 128.892828 -0.663973 -19.238167 8.846645 -15.059693 -20.995385 -11.187455
5.259420 53.689183 -125.751818 7.783232 -14.615934 22.850673 -6.269197 45.521090 -0.753062 1.141181 5.345963 1.844955 -7.356909 8.834524 -3.727836 8.100183 21.691279 -33.661887 -26.478149 -59.026973 -59.931959 -12.254958 1.460756 -115.049141 46.100109 15.672853 -9.801345 -5.532252 40.569107 43.415821 22.014159 -49.323477 47.443187 8.083682 10.996109 132.840759 -44.068889 10.103947 -20.585944 27.366575 -66.508489 13.230251 140.818475 81.330081 -142.652066 83.402231 -14.447797 12.627702 -89.411616 31.743687 8.308518 -21.644914 -37.024516 16.756507 -165.978214 69.214904 156.010263 4.689942 -17.742591 8.534175 -25.728095 -21.623740 -17.174651
2.901828 51.973304 -125.447844 8.060174 -14.354891 23.436262 -3.837303 44.103938 -2.040147 1.302236 4.930447 1.420521 -8.518360 7.776727 -1.021727 5.300386 22.707546 -32.588830 -29.091873 -58.223408 -60.019632 -7.964152 -0.184870 -113.146380 43.786140 16.674428 -9.960252 -7.603063 41.896940 44.903682 21.926246 -49.949272 46.753553 7.918160 11.623464 132.452353 -43.783664 10.273146 -21.298439 32.492497 -67.101957 15.713043 139.163315 82.003101 -144.114697 82.074647 -15.318487 12.668962 -88.680622 32.934038 9.049607 -21.009778 -38.853852 25.187938 -184.880612 66.622785 178.252843 11.824636 -17.907906 7.831669 -4.268626 -23.736478 -5.851659
0.091366 50.223927 -124.777668 8.477065 -14.516210 23.734346 -2.134106 41.888280 -2.730882 1.071268 5.285647 1.204468 -10.392189 6.675643 2.837763 2.894451 23.991263 -31.384842 -34.137033 -59.251529 -60.074799 -6.600519 1.067268 -114.034680 43.417139 8.565714 -11.795743 -9.289920 42.992465 46.154614 20.398961 -47.018158 48.064335 7.317107 9.547391 130.031215 -43.703447 10.601312 -22.414487 37.179168 -66.339455 17.346097 125.923376 82.701242 -133.730050 78.275150 -16.139599 12.605246 -87.163896 33.970523 9.434921 -20.235322 -40.255933 30.279410 -194.420297 63.272919 190.519753 18.192849 -17.372538 7.150181 -14.538691 -26.327283 -10.207123
-2.864877 48.566655 -123.914869 8.802096 -14.295884 24.108047 -0.836741 40.342434 -3.203747 1.009098 5.138339 0.889054 -12.119647 6.137221 6.335073 0.843338 24.838821 -30.181725 -37.564152 -59.099865 -60.365991 -5.194939 1.970768 -114.812652 43.030284 10.380246 -11.829557 -11.022760 43.944249 47.546115 18.873536 -45.494862 48.011746 6.656634 8.298465 128.888648 -43.656431 10.977036 -23.761854 40.932569 -65.664209 17.260870 104.017798 83.675138 -113.979567 72.801129 -16.817864 12.251206 -85.208543 34.911682 9.623640 -19.972108 -42.149575 33.758726 -197.751393 59.508173 196.779908 22.629380 -17.615157 6.948592 -12.998358 -27.255221 -7.830020
-5.930585 46.988568 -122.896078 9.357927 -14.005674 24.327184 0.244891 39.067337 -3.246332 0.936932 4.844316 0.685316 -13.733194 6.071030 9.482563 -0.986040 25.715247 -29.004296 -40.030598 -58.447746 -60.555098 -4.086750 2.663084 -115.471328 43.946277 6.210446 -13.842711 -12.659213 44.835616 48.998097 17.503700 -44.767976 47.229068 5.989265 7.564780 128.437035 -43.577676 11.210705 -25.106126 43.770106 -64.853705 15.735111 80.963403 85.433625 -92.798406 67.611278 -17.269199 11.396652 -82.577465 35.562835 10.041862 -19.994262 -44.018472 35.487822 -197.916985 56.206221 199.664967 26.253893 -18.321093 7.120754 -15.752411 -28.766165 -7.528360
-9.360501 45.649165 -121.684597 9.905443 -14.062349 24.170783 1.020807 37.821831 -3.177050 0.741106 4.740647 0.350220 -16.198687 6.434149 13.430331 -2.203975 26.836273 -27.977623 -45.516374 -60.178946 -60.602807 -4.534251 5.473595 -118.408924 44.811068 7.478226 -14.822518 -14.104018 45.372766 50.109225 14.554546 -41.627312 48.326891 4.836667 4.437689 125.375977 -43.621683 11.267348 -26.349967 45.101993 -63.837578 13.213800 55.595472 84.215925 -68.470748 60.418064 -17.459376 9.970623 -79.330448 37.457324 10.962279 -19.853967 -45.973853 35.655657 -196.561848 53.112842 200.579215 29.268252 -19.365022 7.657068 -15.814436 -29.142095 -4.656663
-12.825362 44.538478 -120.425804 10.144870 -14.044667 24.255827 1.678527 36.880969 -3.139035 0.777328 4.678522 -0.182081 -18.496484 7.459700 16.949254 -3.148611 27.581766 -27.190788 -48.992916 -61.014162 -60.855797 -4.688319 7.319010 -120.231560 46.366616 4.770189 -17.967520 -15.410061 46.054190 51.420208 12.322653 -39.805506 48.490341 3.927870 2.612973 123.942211 -43.887268 11.593630 -27.561634 45.523778 -62.404071 10.403282 37.921791 81.793127 -51.679701 53.411226 -17.557536 8.154164 -75.698700 39.007081 12.261069 -20.095837 -47.897012 34.643532 -195.688649 49.633308 203.633552 29.216599 -20.756714 8.804280 -18.082502 -30.145409 -4.115320
-16.337147 43.733367 -119.173897 10.910198 -13.656342 24.321163 2.257379 35.384659 -2.660352 0.507591 4.634272 -0.478722 -20.937313 8.460320 20.135819 -4.157602 28.676478 -26.724853 -51.334455 -61.132433 -60.636637 -4.915799 8.582233 -120.735915 47.995565 4.892800 -19.868301 -16.570235 47.036781 52.522823 10.689268 -38.562644 48.026209 3.204287 1.873886 123.347274 -44.458681 11.852291 -28.888924 45.065530 -60.397164 7.674166 25.314880 78.963271 -40.948412 46.177253 -18.173694 5.858288 -64.972024 50.176236 24.778675 -20.258647 -49.666721 32.244240 -194.497778 47.665131 203.052645 29.841428 -22.005112 8.990616 -19.107403 -30.460711 -2.781567
